# xmcd CD database file generated by Grip 2.95
# 
# Track frame offsets:
#       150
#       5679
#       9034
#       10821
#       11898
#       12943
#       13943
#       15047
#       16026
#       16968
#       18067
#       18981
#       20053
#       21317
#       22685
#       23824
#       25181
#       26731
#       28102
#       29590
#       30830
#       32225
#       33368
#       34494
#       35565
#       37145
#       38619
#       63610
#       70987
#       95346
#       111991
#       124313
#       132827
#       148407
# 
# Disc length: 2110 seconds
# 
# Revision: 3
# Processed by: cddbd v1.4PL0 Copyright (c) Steve Scherf et al.
# Submitted via: Grip 2.95
# 
DISCID=a4083c22
DTITLE=Robert Calva - Texas Blues Guitar
DYEAR=1900
DGENRE=
TTITLE0=Intro
TTITLE1=Tune Up
TTITLE2=Lick 1
TTITLE3=Lick 2
TTITLE4=Lick 3
TTITLE5=Lick 4
TTITLE6=Lick 5
TTITLE7=Lick 6
TTITLE8=Lick 7
TTITLE9=Lick 8
TTITLE10=Lick 9
TTITLE11=Lick 10
TTITLE12=Lick 11
TTITLE13=Lick 12
TTITLE14=Lick 13
TTITLE15=Lick 14
TTITLE16=Lick 15
TTITLE17=Lick 16
TTITLE18=Lick 17
TTITLE19=Lick 18
TTITLE20=Lick 19
TTITLE21=Lick 20
TTITLE22=Lick 21
TTITLE23=Lick 22
TTITLE24=Lick 23
TTITLE25=Lick 24
TTITLE26=Blues Shuffle Rhythm
TTITLE27=Blues Shuffle Solo
TTITLE28=Slow Blues Rhythm
TTITLE29=Slow Blues Solo
TTITLE30=Latin Blues Rhythm
TTITLE31=Latin Blues Solo
TTITLE32=Straight Blues Rhythm
TTITLE33=Straight Blues Solo
EXTD=
EXTT0=
EXTT1=
EXTT2=
EXTT3=
EXTT4=
EXTT5=
EXTT6=
EXTT7=
EXTT8=
EXTT9=
EXTT10=
EXTT11=
EXTT12=
EXTT13=
EXTT14=
EXTT15=
EXTT16=
EXTT17=
EXTT18=
EXTT19=
EXTT20=
EXTT21=
EXTT22=
EXTT23=
EXTT24=
EXTT25=
EXTT26=
EXTT27=
EXTT28=
EXTT29=
EXTT30=
EXTT31=
EXTT32=
EXTT33=
PLAYORDER=
